HIERARCHY
ROOT Hips
{
	OFFSET 0.00000 0.00000 0.00000
	CHANNELS 6 Xposition Yposition Zposition Zrotation Yrotation Xrotation 
	JOINT LHipJoint
	{
		OFFSET 0 0 0
		CHANNELS 3 Zrotation Yrotation Xrotation
		JOINT LeftUpLeg
		{
			OFFSET 1.36337 -1.57426 1.11036
			CHANNELS 3 Zrotation Yrotation Xrotation
			JOINT LeftLeg
			{
				OFFSET 2.38468 -6.55187 0.00000
				CHANNELS 3 Zrotation Yrotation Xrotation
				JOINT LeftFoot
				{
					OFFSET 2.37166 -6.51609 0.00000
					CHANNELS 3 Zrotation Yrotation Xrotation
					JOINT LeftToeBase
					{
						OFFSET 0.29078 -0.79891 2.01393
						CHANNELS 3 Zrotation Yrotation Xrotation
						End Site
						{
							OFFSET 0.00000 -0.00000 1.07924
						}
					}
				}
			}
		}
	}
	JOINT RHipJoint
	{
		OFFSET 0 0 0
		CHANNELS 3 Zrotation Yrotation Xrotation
		JOINT RightUpLeg
		{
			OFFSET -1.36349 -1.57426 1.11036
			CHANNELS 3 Zrotation Yrotation Xrotation
			JOINT RightLeg
			{
				OFFSET -2.29562 -6.30717 0.00000
				CHANNELS 3 Zrotation Yrotation Xrotation
				JOINT RightFoot
				{
					OFFSET -2.40985 -6.62100 0.00000
					CHANNELS 3 Zrotation Yrotation Xrotation
					JOINT RightToeBase
					{
						OFFSET -0.23197 -0.63733 1.92232
						CHANNELS 3 Zrotation Yrotation Xrotation
						End Site
						{
							OFFSET -0.00000 -0.00000 1.01562
						}
					}
				}
			}
		}
	}
	JOINT LowerBack
	{
		OFFSET 0 0 0
		CHANNELS 3 Zrotation Yrotation Xrotation
		JOINT Spine
		{
			OFFSET -0.08565 2.03602 -0.24562
			CHANNELS 3 Zrotation Yrotation Xrotation
			JOINT Spine1
			{
				OFFSET -0.00036 2.05693 0.00216
				CHANNELS 3 Zrotation Yrotation Xrotation
				JOINT Neck
				{
					OFFSET 0 0 0
					CHANNELS 3 Zrotation Yrotation Xrotation
					JOINT Neck1
					{
						OFFSET -0.03664 1.69515 0.31789
						CHANNELS 3 Zrotation Yrotation Xrotation
						JOINT Head
						{
							OFFSET 0.00932 1.70181 -0.46013
							CHANNELS 3 Zrotation Yrotation Xrotation
							End Site
							{
								OFFSET 0.01243 1.77620 -0.19377
							}
						}
					}
				}
				JOINT LeftShoulder
				{
					OFFSET 0 0 0
					CHANNELS 3 Zrotation Yrotation Xrotation
					JOINT LeftArm
					{
						OFFSET 3.74344 0.81315 -0.36647
						CHANNELS 3 Zrotation Yrotation Xrotation
						JOINT LeftForeArm
						{
							OFFSET 4.97185 -0.00000 -0.00000
							CHANNELS 3 Zrotation Yrotation Xrotation
							JOINT LeftHand
							{
								OFFSET 3.35811 -0.00000 0.00000
								CHANNELS 3 Zrotation Yrotation Xrotation
								JOINT LeftFingerBase
								{
									OFFSET 0 0 0
									CHANNELS 3 Zrotation Yrotation Xrotation
									JOINT LeftHandIndex1
									{
										OFFSET 0.62278 -0.00000 0.00000
										CHANNELS 3 Zrotation Yrotation Xrotation
										End Site
										{
											OFFSET 0.50210 -0.00000 0.00000
										}
									}
								}
								JOINT LThumb
								{
									OFFSET 0 0 0
									CHANNELS 3 Zrotation Yrotation Xrotation
									End Site
									{
										OFFSET 0.50976 -0.00000 0.50976
									}
								}
							}
						}
					}
				}
				JOINT RightShoulder
				{
					OFFSET 0 0 0
					CHANNELS 3 Zrotation Yrotation Xrotation
					JOINT RightArm
					{
						OFFSET -3.75385 0.50666 -0.06525
						CHANNELS 3 Zrotation Yrotation Xrotation
						JOINT RightForeArm
						{
							OFFSET -4.96493 -0.00000 -0.00000
							CHANNELS 3 Zrotation Yrotation Xrotation
							JOINT RightHand
							{
								OFFSET -3.34929 -0.00000 0.00000
								CHANNELS 3 Zrotation Yrotation Xrotation
								JOINT RightFingerBase
								{
									OFFSET 0 0 0
									CHANNELS 3 Zrotation Yrotation Xrotation
									JOINT RightHandIndex1
									{
										OFFSET -0.63804 -0.00000 0.00000
										CHANNELS 3 Zrotation Yrotation Xrotation
										End Site
										{
											OFFSET -0.51441 -0.00000 0.00000
										}
									}
								}
								JOINT RThumb
								{
									OFFSET 0 0 0
									CHANNELS 3 Zrotation Yrotation Xrotation
									End Site
									{
										OFFSET -0.52226 -0.00000 0.52226
									}
								}
							}
						}
					}
				}
			}
		}
	}
}
MOTION
Frames: 10
Frame Time: .0083333
-29.1814 16.2422 -3.1072 0 0 0 0 0 0 -21 0 0 0 0 0 0 0 0 0 0 0 0 0 0 21 0 0 0 0 0 0 0 0 0 0 0 0 0 0 0 0 0 0 0 0 0 0 -16 0 0 21 0 0 11 0 0 0 -8 0 0 0 0 0 0 0 0 0 0 0 0 0 0 0 0 0 0 0 0 8 0 0 0 0 0 0 0 0 0 0 0 0 0 0 0 0 0
-29.1814 16.2422 -3.1072 66.6682 83.9280 66.0974 0.0000 0.0000 0.0000 -24.8217 -6.0786 -0.7008 2.5088 9.8538 28.5046 1.9344 7.2340 -29.6906 0.0495 -1.4352 -3.9471 0.0000 0.0000 0.0000 11.7369 2.9587 -4.7878 -2.6338 -10.0772 29.2272 -2.8774 -15.9638 -40.6615 -0.3859 -3.9894 11.0467 -6.3462 1.8099 -3.4218 -0.3557 2.9175 4.4056 3.4326 1.1780 6.2394 15.0174 18.2525 -5.5947 -11.7582 28.1958 24.3069 -2.1989 13.3434 12.8827 -0.0000 0.0000 0.0000 -91.7631 -4.0453 28.1665 12.5439 -20.6153 -2.2902 -0.0000 0.0000 -4.5220 23.3075 -11.4874 -4.9039 -7.1250 0.0000 -0.0000 -2.6854 17.5108 1.7549 -0.0000 0.0000 0.0000 88.1039 1.9631 16.2188 -12.7481 20.9170 -2.3626 0.0000 -0.0000 -4.6922 -11.4670 -27.2017 5.2978 7.1250 -0.0000 -0.0000 20.4043 -56.4655 -5.9075
-29.1843 16.2600 -3.1050 64.8718 83.9084 64.3258 0.0000 0.0000 0.0000 -24.7273 -5.8957 -0.6977 2.4728 9.7884 28.2941 1.8990 7.3440 -29.5288 0.0694 -1.6992 -4.6751 0.0000 0.0000 0.0000 11.8993 3.8334 -4.3831 -2.6378 -10.0843 29.2502 -3.3380 -14.7556 -41.9039 -0.6427 -5.1286 14.2757 -6.2611 1.8463 -3.2727 -0.3803 2.9462 4.3353 3.3532 1.2037 6.0798 15.2098 18.2084 -5.2398 -11.8545 28.1713 24.2218 -2.2961 13.3652 12.8260 0.0000 0.0000 0.0000 -91.7349 -4.0807 27.7179 12.2907 -20.2392 -2.2018 -0.0000 0.0000 -4.1183 23.4400 -12.3625 -5.3033 -7.1250 0.0000 -0.0000 -2.6351 16.5533 1.7771 0.0000 0.0000 0.0000 88.1761 1.7226 16.7329 -12.8910 21.1273 -2.4139 0.0000 -0.0000 -5.2455 -11.5591 -27.2132 5.3434 7.1250 -0.0000 -0.0000 20.3189 -56.4951 -5.8961
-29.1907 16.2540 -3.1039 63.0832 83.8820 62.4686 0.0000 0.0000 0.0000 -24.6572 -5.8277 -0.6971 2.4912 9.8218 28.4016 1.9223 7.2882 -29.6454 0.0511 -1.4583 -4.0109 0.0000 0.0000 0.0000 11.9472 3.5570 -4.5065 -2.6202 -10.0532 29.1492 -3.0582 -15.4663 -41.1321 -0.4501 -4.3041 11.9339 -6.1949 1.8944 -3.0373 -0.3834 2.9891 4.3265 3.3054 1.2338 5.9332 15.3085 18.1765 -5.1167 -11.8969 28.1496 24.2391 -2.3379 13.3671 12.8304 -0.0000 0.0000 0.0000 -91.6855 -4.0448 27.6778 12.2226 -20.1376 -2.1783 -0.0000 0.0000 -4.3385 23.7733 -12.6458 -5.5083 -7.1250 0.0000 -0.0000 -2.4193 16.2125 1.6491 -0.0000 0.0000 0.0000 88.1872 1.5298 17.3271 -13.0917 21.4215 -2.4867 0.0000 -0.0000 -5.8755 -11.5596 -27.2426 5.3489 7.1250 -0.0000 -0.0000 20.3373 -56.5226 -5.9155
-29.1933 16.2510 -3.1042 61.0779 83.8456 60.5222 0.0000 0.0000 0.0000 -24.5819 -5.8124 -0.7832 2.5008 9.8394 28.4582 1.9420 7.2865 -29.7710 0.0266 -1.0537 -2.8966 0.0000 0.0000 0.0000 11.9814 3.3463 -4.7461 -2.6049 -10.0262 29.0615 -2.7849 -16.1413 -40.3651 -0.2678 -3.3291 9.1964 -6.1180 1.9099 -2.9999 -0.3768 3.0009 4.3155 3.2682 1.2442 5.9013 15.2851 18.1859 -5.0551 -11.8846 28.1527 24.1862 -2.3390 13.3725 12.7913 0.0000 -0.0000 0.0000 -91.6643 -4.0353 27.4655 12.1777 -20.0706 -2.1629 -0.0000 0.0000 -4.4248 23.8079 -12.5430 -5.4734 -7.1250 0.0000 -0.0000 -2.3897 16.3200 1.6234 0.0000 -0.0000 0.0000 88.1357 1.2695 18.2432 -13.3830 21.8457 -2.5941 0.0000 -0.0000 -6.6733 -11.6052 -27.5144 5.4196 7.1250 -0.0000 -0.0000 20.4673 -56.7860 -6.0878
-29.1973 16.2535 -3.1033 59.9139 83.8563 59.4023 0.0000 0.0000 0.0000 -24.4859 -5.7828 -0.9387 2.5243 9.8819 28.5951 1.9580 7.2730 -29.8651 0.0197 -0.9052 -2.4880 0.0000 0.0000 0.0000 12.0790 3.5392 -4.6907 -2.5837 -9.9884 28.9393 -2.8407 -16.0689 -40.5697 -0.2614 -3.2895 9.0859 -6.0750 1.8680 -2.8056 -0.3551 2.9195 4.2047 3.2500 1.2142 5.6804 15.2502 18.1988 -4.8635 -11.7729 28.1786 24.2262 -2.3124 13.4046 12.7482 0.0000 0.0000 0.0000 -91.6771 -3.8885 27.0336 12.0988 -19.9527 -2.1359 -0.0000 0.0000 -4.0815 23.6726 -12.4846 -5.4139 -7.1250 0.0000 -0.0000 -2.4803 16.3972 1.6808 0.0000 0.0000 0.0000 88.1639 1.0101 18.6414 -13.5063 22.0246 -2.6401 0.0000 -0.0000 -6.7995 -11.5597 -27.5672 5.4074 7.1250 -0.0000 -0.0000 20.5480 -56.8261 -6.1334
-29.2035 16.2551 -3.1018 59.1518 83.9136 58.6742 0.0000 0.0000 0.0000 -24.3610 -5.7504 -1.0939 2.5439 9.9172 28.7092 1.9736 7.2602 -29.9566 0.0276 -1.0721 -2.9473 0.0000 0.0000 0.0000 12.1993 3.6222 -4.6664 -2.5627 -9.9509 28.8180 -2.8571 -16.0964 -40.6648 -0.2494 -3.2137 8.8742 -6.0282 1.8231 -2.6802 -0.3127 2.8446 4.1942 3.2576 1.1809 5.6044 15.2174 18.2032 -4.8005 -11.7470 28.2092 24.2976 -2.2987 13.4207 12.7599 0.0000 0.0000 0.0000 -91.6446 -3.8756 26.9489 12.0719 -19.9123 -2.1267 -0.0000 0.0000 -3.9669 23.6175 -12.4765 -5.3964 -7.1250 0.0000 -0.0000 -2.5180 16.4118 1.7056 0.0000 0.0000 0.0000 88.2608 1.1705 18.3024 -13.4228 21.9035 -2.6089 0.0000 -0.0000 -6.3330 -11.4104 -27.3655 5.3003 7.1250 -0.0000 -0.0000 20.5670 -56.6071 -6.0290
-29.2107 16.2601 -3.0990 58.7255 84.0151 58.3382 0.0000 0.0000 0.0000 -24.2010 -5.8000 -1.2732 2.5601 9.9464 28.8034 1.9865 7.1811 -29.9920 0.0296 -1.1106 -3.0533 0.0000 0.0000 0.0000 12.3408 3.6754 -4.7131 -2.5433 -9.9162 28.7057 -2.8150 -16.2447 -40.5801 -0.2379 -3.1391 8.6664 -6.0117 1.7868 -2.5921 -0.2518 2.7836 4.1700 3.3036 1.1525 5.5317 15.2375 18.1814 -4.7939 -11.7753 28.2032 24.3675 -2.3104 13.4158 12.7950 -0.0000 0.0000 0.0000 -91.5183 -3.7582 27.3299 12.1838 -20.0798 -2.1650 -0.0000 0.0000 -4.3483 23.7005 -12.2979 -5.3416 -7.1250 0.0000 -0.0000 -2.4511 16.5962 1.6504 -0.0000 0.0000 0.0000 88.3308 1.2372 18.1235 -13.4506 21.9439 -2.6193 0.0000 -0.0000 -6.2307 -11.3941 -27.2941 5.2798 7.1250 -0.0000 -0.0000 20.5371 -56.5370 -5.9843
-29.2134 16.2639 -3.0977 58.0211 84.0582 57.7801 0.0000 0.0000 0.0000 -24.0962 -5.9171 -1.4605 2.5759 9.9747 28.8947 1.9977 7.1268 -30.0311 0.0217 -0.9504 -2.6123 0.0000 0.0000 0.0000 12.4204 3.6904 -4.8508 -2.5266 -9.8861 28.6086 -2.8102 -16.2141 -40.5357 -0.2597 -3.2784 9.0549 -6.0237 1.7448 -2.6418 -0.2074 2.7287 4.1688 3.3552 1.1224 5.5619 15.2596 18.2027 -4.8425 -11.7790 28.2376 24.4278 -2.2990 13.4257 12.8389 -0.0000 0.0000 0.0000 -91.4610 -3.8544 27.3851 12.1731 -20.0637 -2.1613 -0.0000 0.0000 -4.4538 23.5180 -12.2347 -5.2691 -7.1250 0.0000 -0.0000 -2.5745 16.6832 1.7288 -0.0000 0.0000 0.0000 88.3376 1.3271 18.3528 -13.5019 22.0182 -2.6385 0.0000 -0.0000 -6.5237 -11.3816 -27.2727 5.2701 7.1250 -0.0000 -0.0000 20.5361 -56.5145 -5.9727
-29.2182 16.2633 -3.0959 57.5469 84.1017 57.3404 0.0000 0.0000 0.0000 -24.0080 -5.9222 -1.5325 2.5800 9.9820 28.9185 1.9738 7.1485 -29.8921 0.0188 -0.8858 -2.4346 0.0000 0.0000 0.0000 12.5147 3.7298 -4.8765 -2.5182 -9.8709 28.5596 -2.8127 -16.2466 -40.5711 -0.2925 -3.4781 9.6129 -6.0237 1.7139 -2.5706 -0.1642 2.6818 4.1975 3.3950 1.0981 5.5543 15.2075 18.2240 -4.8690 -11.7265 28.2607 24.4718 -2.2672 13.4327 12.8472 0.0000 0.0000 0.0000 -91.5466 -4.1381 26.9658 12.0039 -19.8105 -2.1036 -0.0000 0.0000 -3.9663 22.9328 -12.4473 -5.2106 -7.1250 0.0000 -0.0000 -2.9910 16.5137 2.0203 0.0000 0.0000 0.0000 88.2840 1.4206 18.7678 -13.5514 22.0897 -2.6571 0.0000 -0.0000 -7.0151 -11.3476 -27.3964 5.2759 7.1250 -0.0000 -0.0000 20.6503 -56.6230 -6.0630
